<?xml version="1.0" encoding="UTF-8" standalone="no"?>
<!DOCTYPE svg PUBLIC "-//W3C//DTD SVG 1.1//EN"
 "http://www.w3.org/Graphics/SVG/1.1/DTD/svg11.dtd">
<!-- Generated by graphviz version 2.43.0 (0)
 -->
<!-- Title: G Pages: 1 -->
<svg width="387pt" height="372pt"
 viewBox="0.00 0.00 386.86 371.88" xmlns="http://www.w3.org/2000/svg" xmlns:xlink="http://www.w3.org/1999/xlink">
<g id="graph0" class="graph" transform="scale(1 1) rotate(0) translate(4 367.88)">
<title>G</title>
<polygon fill="white" stroke="transparent" points="-4,4 -4,-367.88 382.86,-367.88 382.86,4 -4,4"/>
<!-- system.noc_network.network.routers0 -->
<g id="node1" class="node">
<title>system.noc_network.network.routers0</title>
<path fill="#cce6fc" stroke="#000000" d="M153.18,-72.82C153.18,-72.82 183.18,-72.82 183.18,-72.82 189.18,-72.82 195.18,-78.82 195.18,-84.82 195.18,-84.82 195.18,-96.82 195.18,-96.82 195.18,-102.82 189.18,-108.82 183.18,-108.82 183.18,-108.82 153.18,-108.82 153.18,-108.82 147.18,-108.82 141.18,-102.82 141.18,-96.82 141.18,-96.82 141.18,-84.82 141.18,-84.82 141.18,-78.82 147.18,-72.82 153.18,-72.82"/>
<text text-anchor="middle" x="168.18" y="-87.12" font-family="Arial" font-size="14.00" fill="#000000">R 0</text>
</g>
<!-- system.noc_network.network.routers1 -->
<g id="node2" class="node">
<title>system.noc_network.network.routers1</title>
<path fill="#cce6fc" stroke="#000000" d="M233.32,-91.08C233.32,-91.08 263.32,-91.08 263.32,-91.08 269.32,-91.08 275.32,-97.08 275.32,-103.08 275.32,-103.08 275.32,-115.08 275.32,-115.08 275.32,-121.08 269.32,-127.08 263.32,-127.08 263.32,-127.08 233.32,-127.08 233.32,-127.08 227.32,-127.08 221.32,-121.08 221.32,-115.08 221.32,-115.08 221.32,-103.08 221.32,-103.08 221.32,-97.08 227.32,-91.08 233.32,-91.08"/>
<text text-anchor="middle" x="248.32" y="-105.38" font-family="Arial" font-size="14.00" fill="#000000">R 1</text>
</g>
<!-- system.noc_network.network.routers0&#45;&#45;system.noc_network.network.routers1 -->
<g id="edge1" class="edge">
<title>system.noc_network.network.routers0&#45;&#45;system.noc_network.network.routers1</title>
<path fill="none" stroke="black" d="M195.31,-97C203.67,-98.91 212.86,-101 221.22,-102.91"/>
</g>
<!-- system.noc_network.network.routers2 -->
<g id="node3" class="node">
<title>system.noc_network.network.routers2</title>
<path fill="#cce6fc" stroke="#000000" d="M131.71,-154.1C131.71,-154.1 161.71,-154.1 161.71,-154.1 167.71,-154.1 173.71,-160.1 173.71,-166.1 173.71,-166.1 173.71,-178.1 173.71,-178.1 173.71,-184.1 167.71,-190.1 161.71,-190.1 161.71,-190.1 131.71,-190.1 131.71,-190.1 125.71,-190.1 119.71,-184.1 119.71,-178.1 119.71,-178.1 119.71,-166.1 119.71,-166.1 119.71,-160.1 125.71,-154.1 131.71,-154.1"/>
<text text-anchor="middle" x="146.71" y="-168.4" font-family="Arial" font-size="14.00" fill="#000000">R 2</text>
</g>
<!-- system.noc_network.network.routers0&#45;&#45;system.noc_network.network.routers2 -->
<g id="edge4" class="edge">
<title>system.noc_network.network.routers0&#45;&#45;system.noc_network.network.routers2</title>
<path fill="none" stroke="black" d="M163.42,-108.86C159.88,-122.23 155.08,-140.4 151.53,-153.83"/>
</g>
<!-- system.noc_network.network.routers3 -->
<g id="node4" class="node">
<title>system.noc_network.network.routers3</title>
<path fill="#cce6fc" stroke="#000000" d="M217.24,-173.59C217.24,-173.59 247.24,-173.59 247.24,-173.59 253.24,-173.59 259.24,-179.59 259.24,-185.59 259.24,-185.59 259.24,-197.59 259.24,-197.59 259.24,-203.59 253.24,-209.59 247.24,-209.59 247.24,-209.59 217.24,-209.59 217.24,-209.59 211.24,-209.59 205.24,-203.59 205.24,-197.59 205.24,-197.59 205.24,-185.59 205.24,-185.59 205.24,-179.59 211.24,-173.59 217.24,-173.59"/>
<text text-anchor="middle" x="232.24" y="-187.89" font-family="Arial" font-size="14.00" fill="#000000">R 3</text>
</g>
<!-- system.noc_network.network.routers1&#45;&#45;system.noc_network.network.routers3 -->
<g id="edge6" class="edge">
<title>system.noc_network.network.routers1&#45;&#45;system.noc_network.network.routers3</title>
<path fill="none" stroke="black" d="M244.75,-127.39C242.09,-141.07 238.46,-159.67 235.8,-173.33"/>
</g>
<!-- system.noc_network.network.routers2&#45;&#45;system.noc_network.network.routers3 -->
<g id="edge2" class="edge">
<title>system.noc_network.network.routers2&#45;&#45;system.noc_network.network.routers3</title>
<path fill="none" stroke="black" d="M173.77,-178.26C183.76,-180.54 195.07,-183.12 205.06,-185.4"/>
</g>
<!-- system.noc_network.network.routers4 -->
<g id="node5" class="node">
<title>system.noc_network.network.routers4</title>
<path fill="#cce6fc" stroke="#000000" d="M115.76,-236.57C115.76,-236.57 145.76,-236.57 145.76,-236.57 151.76,-236.57 157.76,-242.57 157.76,-248.57 157.76,-248.57 157.76,-260.57 157.76,-260.57 157.76,-266.57 151.76,-272.57 145.76,-272.57 145.76,-272.57 115.76,-272.57 115.76,-272.57 109.76,-272.57 103.76,-266.57 103.76,-260.57 103.76,-260.57 103.76,-248.57 103.76,-248.57 103.76,-242.57 109.76,-236.57 115.76,-236.57"/>
<text text-anchor="middle" x="130.76" y="-250.87" font-family="Arial" font-size="14.00" fill="#000000">R 4</text>
</g>
<!-- system.noc_network.network.routers2&#45;&#45;system.noc_network.network.routers4 -->
<g id="edge5" class="edge">
<title>system.noc_network.network.routers2&#45;&#45;system.noc_network.network.routers4</title>
<path fill="none" stroke="black" d="M143.17,-190.4C140.53,-204.07 136.93,-222.66 134.29,-236.32"/>
</g>
<!-- system.noc_network.network.routers5 -->
<g id="node6" class="node">
<title>system.noc_network.network.routers5</title>
<path fill="#cce6fc" stroke="#000000" d="M196,-254.89C196,-254.89 226,-254.89 226,-254.89 232,-254.89 238,-260.89 238,-266.89 238,-266.89 238,-278.89 238,-278.89 238,-284.89 232,-290.89 226,-290.89 226,-290.89 196,-290.89 196,-290.89 190,-290.89 184,-284.89 184,-278.89 184,-278.89 184,-266.89 184,-266.89 184,-260.89 190,-254.89 196,-254.89"/>
<text text-anchor="middle" x="211" y="-269.19" font-family="Arial" font-size="14.00" fill="#000000">R 5</text>
</g>
<!-- system.noc_network.network.routers3&#45;&#45;system.noc_network.network.routers5 -->
<g id="edge7" class="edge">
<title>system.noc_network.network.routers3&#45;&#45;system.noc_network.network.routers5</title>
<path fill="none" stroke="black" d="M227.53,-209.63C224.03,-223.01 219.28,-241.18 215.77,-254.61"/>
</g>
<!-- system.noc_network.network.routers4&#45;&#45;system.noc_network.network.routers5 -->
<g id="edge3" class="edge">
<title>system.noc_network.network.routers4&#45;&#45;system.noc_network.network.routers5</title>
<path fill="none" stroke="black" d="M157.93,-260.77C166.29,-262.68 175.5,-264.78 183.86,-266.69"/>
</g>
<!-- system.noc_network.socket_controllers0 -->
<g id="node7" class="node">
<title>system.noc_network.socket_controllers0</title>
<path fill="#e5bcd0" stroke="#000000" d="M80.55,-0.5C80.55,-0.5 189.55,-0.5 189.55,-0.5 195.55,-0.5 201.55,-6.5 201.55,-12.5 201.55,-12.5 201.55,-24.5 201.55,-24.5 201.55,-30.5 195.55,-36.5 189.55,-36.5 189.55,-36.5 80.55,-36.5 80.55,-36.5 74.55,-36.5 68.55,-30.5 68.55,-24.5 68.55,-24.5 68.55,-12.5 68.55,-12.5 68.55,-6.5 74.55,-0.5 80.55,-0.5"/>
<text text-anchor="middle" x="135.05" y="-14.8" font-family="Arial" font-size="14.00" fill="#000000">socket_controllers0</text>
</g>
<!-- system.noc_network.socket_controllers0&#45;&#45;system.noc_network.network.routers0 -->
<g id="edge8" class="edge">
<title>system.noc_network.socket_controllers0&#45;&#45;system.noc_network.network.routers0</title>
<path fill="none" stroke="black" d="M143.41,-36.75C148.43,-47.71 154.8,-61.61 159.82,-72.58"/>
</g>
<!-- system.noc_network.socket_controllers1 -->
<g id="node8" class="node">
<title>system.noc_network.socket_controllers1</title>
<path fill="#e5bcd0" stroke="#000000" d="M255.41,-40.72C255.41,-40.72 364.41,-40.72 364.41,-40.72 370.41,-40.72 376.41,-46.72 376.41,-52.72 376.41,-52.72 376.41,-64.72 376.41,-64.72 376.41,-70.72 370.41,-76.72 364.41,-76.72 364.41,-76.72 255.41,-76.72 255.41,-76.72 249.41,-76.72 243.41,-70.72 243.41,-64.72 243.41,-64.72 243.41,-52.72 243.41,-52.72 243.41,-46.72 249.41,-40.72 255.41,-40.72"/>
<text text-anchor="middle" x="309.91" y="-55.02" font-family="Arial" font-size="14.00" fill="#000000">socket_controllers1</text>
</g>
<!-- system.noc_network.socket_controllers1&#45;&#45;system.noc_network.network.routers1 -->
<g id="edge9" class="edge">
<title>system.noc_network.socket_controllers1&#45;&#45;system.noc_network.network.routers1</title>
<path fill="none" stroke="black" d="M287.67,-76.9C282.16,-81.41 276.25,-86.24 270.73,-90.76"/>
</g>
<!-- system.noc_network.socket_controllers2 -->
<g id="node9" class="node">
<title>system.noc_network.socket_controllers2</title>
<path fill="#e5bcd0" stroke="#000000" d="M12,-136.03C12,-136.03 121,-136.03 121,-136.03 127,-136.03 133,-142.03 133,-148.03 133,-148.03 133,-160.03 133,-160.03 133,-166.03 127,-172.03 121,-172.03 121,-172.03 12,-172.03 12,-172.03 6,-172.03 0,-166.03 0,-160.03 0,-160.03 0,-148.03 0,-148.03 0,-142.03 6,-136.03 12,-136.03"/>
<text text-anchor="middle" x="66.5" y="-150.33" font-family="Arial" font-size="14.00" fill="#000000">socket_controllers2</text>
</g>
<!-- system.noc_network.socket_controllers2&#45;&#45;system.noc_network.network.routers2 -->
<g id="edge10" class="edge">
<title>system.noc_network.socket_controllers2&#45;&#45;system.noc_network.network.routers2</title>
<path fill="none" stroke="black" d="M133.1,-169.03C133.23,-169.06 133.35,-169.09 133.48,-169.12"/>
</g>
<!-- system.noc_network.socket_controllers3 -->
<g id="node10" class="node">
<title>system.noc_network.socket_controllers3</title>
<path fill="#e5bcd0" stroke="#000000" d="M257.86,-192.09C257.86,-192.09 366.86,-192.09 366.86,-192.09 372.86,-192.09 378.86,-198.09 378.86,-204.09 378.86,-204.09 378.86,-216.09 378.86,-216.09 378.86,-222.09 372.86,-228.09 366.86,-228.09 366.86,-228.09 257.86,-228.09 257.86,-228.09 251.86,-228.09 245.86,-222.09 245.86,-216.09 245.86,-216.09 245.86,-204.09 245.86,-204.09 245.86,-198.09 251.86,-192.09 257.86,-192.09"/>
<text text-anchor="middle" x="312.36" y="-206.39" font-family="Arial" font-size="14.00" fill="#000000">socket_controllers3</text>
</g>
<!-- system.noc_network.socket_controllers3&#45;&#45;system.noc_network.network.routers3 -->
<g id="edge11" class="edge">
<title>system.noc_network.socket_controllers3&#45;&#45;system.noc_network.network.routers3</title>
<path fill="none" stroke="black" d="M245.83,-194.73C245.71,-194.7 245.58,-194.67 245.46,-194.64"/>
</g>
<!-- system.noc_network.socket_controllers4 -->
<g id="node11" class="node">
<title>system.noc_network.socket_controllers4</title>
<path fill="#e5bcd0" stroke="#000000" d="M15.92,-288.42C15.92,-288.42 124.92,-288.42 124.92,-288.42 130.92,-288.42 136.92,-294.42 136.92,-300.42 136.92,-300.42 136.92,-312.42 136.92,-312.42 136.92,-318.42 130.92,-324.42 124.92,-324.42 124.92,-324.42 15.92,-324.42 15.92,-324.42 9.92,-324.42 3.92,-318.42 3.92,-312.42 3.92,-312.42 3.92,-300.42 3.92,-300.42 3.92,-294.42 9.92,-288.42 15.92,-288.42"/>
<text text-anchor="middle" x="70.42" y="-302.72" font-family="Arial" font-size="14.00" fill="#000000">socket_controllers4</text>
</g>
<!-- system.noc_network.socket_controllers4&#45;&#45;system.noc_network.network.routers4 -->
<g id="edge12" class="edge">
<title>system.noc_network.socket_controllers4&#45;&#45;system.noc_network.network.routers4</title>
<path fill="none" stroke="black" d="M91.53,-288.28C97.37,-283.26 103.72,-277.81 109.57,-272.78"/>
</g>
<!-- system.noc_network.socket_controllers5 -->
<g id="node12" class="node">
<title>system.noc_network.socket_controllers5</title>
<path fill="#e5bcd0" stroke="#000000" d="M189.29,-327.38C189.29,-327.38 298.29,-327.38 298.29,-327.38 304.29,-327.38 310.29,-333.38 310.29,-339.38 310.29,-339.38 310.29,-351.38 310.29,-351.38 310.29,-357.38 304.29,-363.38 298.29,-363.38 298.29,-363.38 189.29,-363.38 189.29,-363.38 183.29,-363.38 177.29,-357.38 177.29,-351.38 177.29,-351.38 177.29,-339.38 177.29,-339.38 177.29,-333.38 183.29,-327.38 189.29,-327.38"/>
<text text-anchor="middle" x="243.79" y="-341.68" font-family="Arial" font-size="14.00" fill="#000000">socket_controllers5</text>
</g>
<!-- system.noc_network.socket_controllers5&#45;&#45;system.noc_network.network.routers5 -->
<g id="edge13" class="edge">
<title>system.noc_network.socket_controllers5&#45;&#45;system.noc_network.network.routers5</title>
<path fill="none" stroke="black" d="M235.52,-327.08C230.51,-316.01 224.15,-301.95 219.16,-290.92"/>
</g>
</g>
</svg>
